<svg width="77" height="67" xmlns="http://www.w3.org/2000/svg" xmlns:xlink="http://www.w3.org/1999/xlink" overflow="hidden"><defs><clipPath id="clip0"><rect x="1329" y="1237" width="77" height="67"/></clipPath></defs><g clip-path="url(#clip0)" transform="translate(-1329 -1237)"><path d="M1404.07 1237 1331.16 1237C1330.24 1237 1329.32 1237.69 1329.09 1238.61 1328.86 1239.52 1329.09 1240.44 1329.78 1241.13L1360.14 1266.36 1360.14 1301.69C1360.14 1302.6 1360.6 1303.29 1361.29 1303.75 1361.98 1304.21 1362.9 1303.98 1363.59 1303.52L1373.94 1295.72C1374.63 1295.26 1374.86 1294.57 1374.86 1293.89L1374.86 1266.36 1405.22 1241.13C1405.91 1240.44 1406.14 1239.52 1405.91 1238.61 1405.68 1237.69 1404.99 1237 1404.07 1237ZM1371.41 1263.38C1370.95 1263.84 1370.49 1264.53 1370.49 1265.21L1370.49 1292.51 1364.74 1296.87 1364.74 1265.21C1364.74 1264.53 1364.51 1263.84 1363.82 1263.38L1337.37 1241.59 1397.63 1241.59 1371.41 1263.38Z" fill="#ffffff" fill-rule="evenodd"/></g></svg>