<svg width="54" height="82" xmlns="http://www.w3.org/2000/svg" xmlns:xlink="http://www.w3.org/1999/xlink" overflow="hidden"><defs><clipPath id="clip0"><rect x="585" y="1055" width="54" height="82"/></clipPath></defs><g clip-path="url(#clip0)" transform="translate(-585 -1055)"><path d="M633.119 1071.24 630.366 1072.39C629.907 1072.62 629.448 1073.08 629.219 1073.77L620.042 1097.91C619.584 1098.83 620.042 1099.98 620.731 1100.44L626.466 1105.04 623.713 1111.94 590.678 1099.29 593.431 1092.39 600.772 1092.62C601.69 1092.62 602.607 1092.16 603.066 1091.24L612.242 1067.1C612.472 1066.64 612.472 1065.95 612.242 1065.26L611.095 1062.5 612.013 1060.2 634.495 1068.71 633.119 1071.24ZM637.707 1065.49 611.095 1055.14C609.949 1054.68 608.572 1055.37 608.113 1056.52 608.113 1056.52 608.113 1056.52 608.113 1056.52L606.049 1061.81C605.819 1062.27 605.819 1062.96 606.049 1063.65L607.196 1066.41 598.937 1088.02 591.596 1087.79C590.678 1087.79 589.76 1088.25 589.301 1089.17L585.172 1099.75C584.943 1100.21 584.943 1100.9 585.172 1101.59 585.401 1102.05 585.86 1102.51 586.549 1102.74L603.066 1109.18 593.66 1133.78C593.201 1134.93 593.89 1136.31 595.037 1136.77 595.037 1136.77 595.037 1136.77 595.037 1136.77 595.266 1136.77 595.496 1137 595.954 1137 596.872 1137 597.79 1136.31 598.019 1135.62L607.425 1111.02 623.942 1117.46C624.172 1117.46 624.401 1117.69 624.86 1117.69 625.089 1117.69 625.548 1117.69 625.778 1117.46 626.237 1117.23 626.695 1116.77 626.925 1116.08L631.054 1105.5C631.513 1104.58 631.054 1103.43 630.366 1102.97L624.631 1098.37 632.89 1076.76 635.642 1075.61C636.101 1075.38 636.56 1074.92 636.79 1074.46L638.854 1069.17C639.313 1067.33 638.625 1066.18 637.707 1065.49 637.478 1065.72 637.478 1065.72 637.707 1065.49" fill="#000000" fill-rule="evenodd"/></g></svg>