<svg width="131" height="131" xmlns="http://www.w3.org/2000/svg" xmlns:xlink="http://www.w3.org/1999/xlink" overflow="hidden"><defs><clipPath id="clip0"><rect x="327" y="1380" width="131" height="131"/></clipPath></defs><g clip-path="url(#clip0)" transform="translate(-327 -1380)"><path d="M369 1474 391.226 1457.54C392.153 1456.85 393.079 1456.85 394.005 1457.54L416 1474 416 1415 369 1415 369 1474Z" fill="#26890D" fill-rule="evenodd"/><path d="M420.571 1478.89C420.571 1479.81 420.109 1480.5 419.185 1480.97 418.954 1481.2 418.492 1481.2 418.261 1481.2 417.799 1481.2 417.337 1480.97 416.875 1480.73L392.615 1462.25 368.125 1480.73C367.432 1481.2 366.508 1481.43 365.584 1480.97 364.891 1480.5 364.197 1479.81 364.197 1478.89L364.197 1412.35C364.197 1410.96 365.122 1410.04 366.508 1410.04L418.03 1410.04C419.416 1410.04 420.341 1410.96 420.341 1412.35L420.571 1478.89ZM392.384 1380C356.111 1380 327 1409.34 327 1445.38 327 1481.66 356.342 1511 392.384 1511 428.427 1511 458 1481.66 458 1445.38L458 1445.38C457.769 1409.34 428.658 1380 392.384 1380" fill="#26890D" fill-rule="evenodd"/></g></svg>